<svg xmlns="http://www.w3.org/2000/svg" width="48" height="48" viewBox="0 0 48 48" fill="none"><g id="earth-svgrepo-com 1"><path id="Vector" fill-rule="evenodd" clip-rule="evenodd" d="M24 46C36.1502 46 46 36.1502 46 24C46 11.8497 36.1502 2 24 2C11.8497 2 2 11.8497 2 24C2 36.1502 11.8497 46 24 46ZM6.2347 26.828C6.0892 25.9066 6.01366 24.9622 6.01366 24C6.01366 15.8595 11.4216 8.9821 18.8409 6.7645C18.5375 8.3896 17.8424 9.65766 17.1278 10.9611C16.9969 11.2 16.8652 11.4402 16.7353 11.6838C16.2348 12.6222 15.625 13.8594 15.625 15.2656C15.625 16.8129 16.3391 18.1675 17.5858 19.4142C18.9558 20.7842 19.2374 21.8798 19.5555 23.1178C19.6004 23.2924 19.646 23.4698 19.6955 23.6512C19.9018 24.4078 20.2302 25.4336 21.1014 26.3048C21.9732 27.1766 23.1544 27.6704 24.6078 27.9612C29.1286 28.8654 30.54 30.552 31.2112 31.8944C31.2704 32.013 31.3818 32.4154 31.4426 33.2674C31.499 34.0574 31.5 34.9812 31.5 36V36.0418C31.5 37.0116 31.5 38.071 31.5676 39.0174C31.5952 39.404 31.6366 39.8274 31.71 40.2548C29.8878 41.1206 27.8968 41.689 25.8 41.8974C25.6006 40.9878 25.2308 40.141 24.6 39.3C23.6456 38.0276 22.1418 36.8564 20.2 35.4C19.6803 35.0102 19.5391 34.6484 19.492 34.2182C19.4279 33.6332 19.5444 32.9678 19.7293 31.93L19.7408 31.8652C19.8948 31.0028 20.1268 29.7038 19.832 28.4686C19.4691 26.9482 18.4204 25.8142 16.7428 25.143C13.5932 23.8832 10.1773 24.944 7.91112 25.9756C7.30186 26.253 6.73732 26.5458 6.2347 26.828ZM7.3501 30.8162C9.73058 36.6248 15.0624 40.9116 21.4804 41.8112C20.9488 41.0454 19.963 40.2222 17.8 38.6C16.3197 37.4898 15.6727 36.0862 15.5157 34.6536C15.386 33.4696 15.6029 32.2708 15.7562 31.423L15.7913 31.2284C15.9746 30.1994 16.0165 29.7126 15.9412 29.397L15.9384 29.3836C15.9239 29.3086 15.8849 29.108 15.2572 28.857C13.7127 28.2392 11.6286 28.6784 9.5683 29.6162C8.70438 30.0094 7.9371 30.4482 7.3501 30.8162ZM24 6.01366C23.651 6.01366 23.3044 6.0236 22.9604 6.0432C22.7244 9.12954 21.4848 11.3617 20.6134 12.9305C20.4882 13.1559 20.3706 13.3676 20.2648 13.5662C19.7652 14.5028 19.625 14.9531 19.625 15.2656C19.625 15.4371 19.6609 15.8325 20.4142 16.5858C22.5856 18.7571 23.103 20.815 23.4374 22.1448C23.4782 22.3074 23.5164 22.459 23.5546 22.5988C23.7232 23.2172 23.8324 23.379 23.9298 23.4764C24.0268 23.5734 24.3456 23.8296 25.3922 24.0388C30.8714 25.1346 33.46 27.448 34.7888 30.1056C35.2296 30.987 35.3682 32.0846 35.4324 32.9826C35.5 33.929 35.5 34.9884 35.5 35.9584V36C35.5 36.6476 35.5004 37.2568 35.5152 37.8176C39.47 34.5182 41.9864 29.553 41.9864 24C41.9864 23.7324 41.9804 23.466 41.969 23.2012C40.507 23.2424 39.3628 22.6688 38.4612 22.2168C37.0278 21.4988 35.6274 21 34 21C32.4966 21 31.2216 20.7 30.204 19.9651C29.1876 19.231 28.6966 18.2519 28.393 17.4928C28.22 17.06 28.091 16.7005 27.982 16.3963C27.6586 15.4936 27.509 15.0764 26.8906 14.6641C25.8356 13.9607 25.0166 12.9844 24.8984 11.6445C24.7972 10.4985 25.2726 9.48258 25.5862 8.85556C25.7238 8.58034 25.8584 8.32336 25.9858 8.07998C26.3366 7.4099 26.6366 6.83696 26.8174 6.23304C25.8994 6.08864 24.9584 6.01366 24 6.01366ZM41.3142 19.1119C41.0268 19.0173 40.667 18.8474 40.1444 18.5861L40.1344 18.5811C38.8144 17.9211 36.9722 17 34 17C33.0034 17 32.6534 16.8 32.546 16.7224C32.4374 16.644 32.3034 16.4981 32.107 16.0072C32.06 15.8897 32.0084 15.7344 31.9474 15.5511C31.6026 14.5136 30.9558 12.5668 29.1094 11.3359C28.816 11.1403 29.0178 10.9365 29.1638 10.6444C29.2338 10.5045 29.3212 10.3426 29.4196 10.1603C29.7928 9.4687 30.3246 8.48332 30.666 7.28938C35.8164 9.34574 39.7934 13.7142 41.3142 19.1119Z" fill="#F2F2F2"></path></g></svg>