<svg xmlns="http://www.w3.org/2000/svg" width="48" height="48" viewBox="0 0 48 48" fill="none"><g id="group-svgrepo-com (1) 1" clip-path="url(#clip0_126_250)"><path id="Vector" fill-rule="evenodd" clip-rule="evenodd" d="M32 12C28.6864 12 26 14.6863 26 18C26 21.3138 28.6864 24 32 24C35.3138 24 38 21.3138 38 18C38 14.6863 35.3138 12 32 12ZM22 18C22 12.4772 26.4772 8 32 8C37.5228 8 42 12.4772 42 18C42 20.6386 40.978 23.0386 39.3084 24.8256C42.9902 26.0248 45.8352 28.3986 47.6528 31.0658C48.2748 31.9786 48.039 33.2228 47.1262 33.8448C46.2136 34.4668 44.9692 34.231 44.3472 33.3182C42.3958 30.4546 38.8356 28 34 28C26.332 28 22 34.1484 22 38C22 39.1046 21.1046 40 20 40C18.8955 40 18 39.1046 18 38C18 36.616 18.317 35.14 18.9216 33.685C18.7676 33.5862 18.6246 33.4646 18.4978 33.3204C16.8561 31.4524 14.3083 30 11 30C7.6917 30 5.14398 31.4524 3.50228 33.3204C2.7731 34.15 1.50938 34.2314 0.67971 33.5022C-0.149962 32.773 -0.231418 31.5094 0.497772 30.6796C1.61807 29.405 3.03568 28.2728 4.7145 27.4414C3.03978 25.807 2.00002 23.525 2.00002 21C2.00002 16.0294 6.02946 12 11 12C15.9706 12 20 16.0294 20 21C20 23.525 18.9603 25.807 17.2856 27.4414C18.7304 28.157 19.9817 29.0952 21.0166 30.1554C22.304 28.5318 23.9772 27.0764 25.9844 25.989C23.5644 24.1638 22 21.2646 22 18ZM6.00002 21C6.00002 18.2386 8.2386 16 11 16C13.7614 16 16 18.2386 16 21C16 23.7614 13.7614 26 11 26C8.2386 26 6.00002 23.7614 6.00002 21Z" fill="#F2F2F2"></path></g><defs><clipPath id="clip0_126_250"><rect width="48" height="48" fill="white"></rect></clipPath></defs></svg>