<svg xmlns="http://www.w3.org/2000/svg" width="48" height="48" viewBox="0 0 48 48" fill="none"><g id="health-svgrepo-com 1"><path id="Vector" d="M34.5 14.0004C34.5 13.1719 33.8284 12.5004 33 12.5004C32.1716 12.5004 31.5 13.1719 31.5 14.0004V16.5004H29C28.1716 16.5004 27.5 17.172 27.5 18.0004C27.5 18.8288 28.1716 19.5004 29 19.5004H31.5V22.0004C31.5 22.8288 32.1716 23.5004 33 23.5004C33.8284 23.5004 34.5 22.8288 34.5 22.0004V19.5004H37C37.8284 19.5004 38.5 18.8288 38.5 18.0004C38.5 17.172 37.8284 16.5004 37 16.5004H34.5V14.0004Z" fill="#F2F2F2"></path><path id="Vector_2" fill-rule="evenodd" clip-rule="evenodd" d="M45.5 18.6353C45.5 11.9845 42.5352 7.01966 37.9218 5.21322C33.6504 3.5407 28.5236 4.79206 24 9.02668C19.4763 4.79206 14.3496 3.5407 10.0782 5.21324C5.46484 7.01968 2.5 11.9845 2.5 18.6353C2.5 22.8712 4.76082 27.0396 7.57458 30.6282C10.4173 34.2538 13.9934 37.5002 16.9783 39.9224L17.2465 40.1402C19.6477 42.0916 21.3812 43.5004 24 43.5004C26.6188 43.5004 28.3524 42.0916 30.7534 40.1404L31.0218 39.9224C34.0066 37.5002 37.5828 34.2538 40.4254 30.6282C43.2392 27.0396 45.5 22.8712 45.5 18.6353ZM25.0956 12.173C29.3192 7.6559 33.6982 6.78118 36.828 8.0067C39.9646 9.23494 42.5 12.8261 42.5 18.6353C42.5 21.8582 40.7414 25.3632 38.0646 28.7772C35.4168 32.1544 32.0312 35.2398 29.1314 37.593C26.3462 39.853 25.4458 40.5004 24 40.5004C22.5542 40.5004 21.6538 39.853 18.8686 37.5928C15.9689 35.2398 12.5833 32.1542 9.93542 28.7772C7.25862 25.3632 5.5 21.858 5.5 18.6353C5.5 12.8261 8.03532 9.23494 11.172 8.00672C14.3018 6.78118 18.6808 7.6559 22.9044 12.173C23.188 12.4764 23.5846 12.6486 24 12.6486C24.4154 12.6486 24.812 12.4764 25.0956 12.173Z" fill="#F2F2F2"></path></g></svg>