<svg xmlns="http://www.w3.org/2000/svg" width="335" height="48" viewBox="0 0 335 48" fill="none"><g clip-path="url(#clip0_150_289)"><path d="M40.3938 47.641V10.4553L25.9303 30.8685H20.9605L6.57573 10.4553V47.641H0V0.179443H7.23173L23.448 23.0898L39.6643 0.179443H46.9695V47.641H40.3938Z" fill="#F2F2F2"></path><path d="M81.6534 47.6411V42.2161C80.0948 43.9748 78.2947 45.3798 76.248 46.4259C74.2013 47.4719 72.0339 47.9949 69.7458 47.9949C67.211 47.9949 64.8389 47.5437 62.6242 46.6412C60.4096 45.7388 58.4468 44.4517 56.7412 42.7852C55.0356 41.17 53.7079 39.2523 52.758 37.0371C51.8081 34.8271 51.3358 32.5043 51.3358 30.0789C51.3358 27.6535 51.8081 25.3307 52.758 23.1207C53.7079 20.9106 55.0356 18.9673 56.7412 17.3059C58.4468 15.6445 60.4043 14.3575 62.6242 13.4499C64.8389 12.5474 67.2162 12.0962 69.7458 12.0962C72.0811 12.0962 74.2853 12.5731 76.3582 13.5217C78.4259 14.4754 80.1945 15.8035 81.6534 17.5161V12.8038H88.2292V47.6411H81.6534ZM65.1065 19.3416C63.6214 19.9364 62.3408 20.7568 61.2703 21.8028C60.1997 22.8489 59.36 24.1 58.7512 25.5512C58.1425 27.0023 57.8381 28.5149 57.8381 30.084C57.8381 31.6531 58.1425 33.1555 58.7512 34.581C59.36 36.0065 60.1997 37.2474 61.2703 38.2934C62.3408 39.3394 63.6214 40.1599 65.1065 40.7547C66.5917 41.3495 68.1399 41.6469 69.7458 41.6469C71.3516 41.6469 72.8893 41.3495 74.3482 40.7547C75.8072 40.1599 77.0772 39.3394 78.1478 38.2934C79.2184 37.2474 80.0581 36.0116 80.6668 34.581C81.2756 33.1555 81.58 31.6531 81.58 30.084C81.58 28.5149 81.2756 27.0023 80.6668 25.5512C80.0581 24.1 79.2184 22.8489 78.1478 21.8028C77.0772 20.7568 75.8124 19.9364 74.3482 19.3416C72.8893 18.7468 71.3516 18.4494 69.7458 18.4494C68.1399 18.4494 66.5917 18.7468 65.1065 19.3416Z" fill="#F2F2F2"></path><path d="M111.247 18.8084C110.077 18.2853 109.032 18.0238 108.103 18.0238C106.156 18.0238 104.545 18.6904 103.28 20.0236C101.916 21.4491 101.234 23.0951 101.234 24.9462V47.6412H94.9518V24.9462C94.9518 22.3772 95.6183 20.0236 96.9618 17.8802C98.3 15.7369 100.137 14.0755 102.477 12.8859C104.23 12.0757 106.104 11.6707 108.103 11.6707C109.709 11.6707 111.247 11.9578 112.706 12.527C114.165 13.0961 115.702 14.0242 117.308 15.3113L111.247 18.8084Z" fill="#F2F2F2"></path><path d="M122.677 5.85062C122.021 5.20967 121.69 4.43539 121.69 3.53292C121.69 2.63045 122.021 1.85618 122.677 1.21522C123.333 0.574263 124.125 0.251221 125.049 0.251221C125.973 0.251221 126.765 0.574263 127.421 1.21522C128.077 1.85618 128.408 2.63045 128.408 3.53292C128.408 4.43539 128.077 5.20967 127.421 5.85062C126.765 6.49158 125.973 6.81462 125.049 6.81462C124.125 6.81462 123.333 6.49158 122.677 5.85062ZM122.058 47.641V11.9577H128.193V47.641H122.058Z" fill="#F2F2F2"></path><path d="M158.925 47.6411V26.228C158.925 24.0847 158.122 22.2336 156.516 20.6594C154.957 19.1365 153.058 18.3776 150.817 18.3776C148.576 18.3776 146.728 19.1621 145.117 20.7312C144.388 21.4439 143.8 22.29 143.364 23.2642C142.924 24.2385 142.708 25.2281 142.708 26.228V47.6411H136.353V12.8141H142.708V15.742C143.632 14.6498 144.85 13.7422 146.361 13.0294C147.873 12.3167 149.358 11.9578 150.817 11.9578C152.764 11.9578 154.627 12.327 156.406 13.0653C158.185 13.8037 159.754 14.8395 161.118 16.1727C162.436 17.4597 163.47 18.9673 164.225 20.7055C164.981 22.4438 165.359 24.2847 165.359 26.2383V47.6514H158.93L158.925 47.6411Z" fill="#F2F2F2"></path><path d="M226.01 30.0482L236.894 47.4617H229.295L222.284 36.1142L215.199 47.4617H207.747L218.484 30.0482L207.232 11.7783H214.685L222.284 23.9821L229.809 11.7783H237.335L226.01 30.0482Z" fill="#F2F2F2"></path><path d="M249.017 46.431C246.802 45.5029 244.84 44.2056 243.134 42.5391C241.476 40.9239 240.174 39.0062 239.224 36.791C238.274 34.5759 237.802 32.2582 237.802 29.8328C237.802 27.4074 238.274 25.0846 239.224 22.8746C240.174 20.6594 241.476 18.7468 243.134 17.1265C244.84 15.46 246.797 14.1627 249.017 13.2346C251.232 12.3065 253.583 11.845 256.065 11.845C261.812 11.845 266.682 14.2242 270.675 18.9827L264.976 22.1926C262.441 19.5775 259.471 18.2648 256.065 18.2648C254.459 18.2648 252.937 18.5622 251.499 19.157C250.061 19.7518 248.807 20.5722 247.736 21.6183C246.666 22.6643 245.81 23.9001 245.181 25.3307C244.546 26.7562 244.231 28.2586 244.231 29.8277C244.231 31.3967 244.546 32.8991 245.181 34.3246C245.81 35.7501 246.666 36.991 247.736 38.037C248.807 39.0831 250.061 39.9035 251.499 40.4983C252.937 41.0931 254.459 41.3905 256.065 41.3905C259.471 41.3905 262.447 40.083 264.976 37.4627L270.675 40.6727C266.682 45.4311 261.812 47.8104 256.065 47.8104C253.583 47.8104 251.232 47.3489 249.017 46.4208V46.431Z" fill="#F2F2F2"></path><path d="M279.744 32.3351C279.744 33.4786 280.169 34.6682 281.024 35.9039C281.875 37.1397 282.861 38.1857 283.984 39.0421C286.031 40.6111 288.414 41.3957 291.143 41.3957C295.477 41.3957 299.009 39.3497 301.733 35.2579L307.285 38.4678C305.386 41.4674 303.05 43.7749 300.274 45.3901C297.498 47.0104 294.454 47.8155 291.143 47.8155C288.66 47.8155 286.299 47.354 284.058 46.4259C281.817 45.4978 279.844 44.2005 278.143 42.534C276.438 40.8675 275.11 38.9395 274.16 36.7551C273.21 34.5656 272.738 32.2582 272.738 29.8328C272.738 27.4074 273.21 25.0846 274.16 22.8746C275.11 20.6594 276.438 18.7212 278.143 17.0598C279.796 15.3933 281.759 14.1114 284.026 13.2038C286.288 12.3013 288.666 11.8501 291.148 11.8501C293.63 11.8501 296.007 12.3013 298.269 13.2038C300.536 14.1063 302.494 15.3933 304.152 17.0598C307.758 20.6748 309.558 24.8641 309.558 29.6226C309.558 30.4789 309.484 31.3813 309.337 32.3351H279.754H279.744ZM285.517 18.9878C283.764 19.8441 282.363 20.9773 281.318 22.3772C280.269 23.7822 279.749 25.2692 279.749 26.8382H302.541C302.541 25.2692 302.016 23.7822 300.972 22.3772C299.922 20.9722 298.526 19.8441 296.774 18.9878C295.021 18.1315 293.147 17.7008 291.148 17.7008C289.148 17.7008 287.275 18.1263 285.522 18.9878H285.517Z" fill="#F2F2F2"></path><path d="M315.582 47.4616V0H321.429V47.4616H315.582Z" fill="#F2F2F2"></path><path d="M279.744 32.3351C279.744 33.4786 280.169 34.6682 281.024 35.9039C281.875 37.1397 282.861 38.1857 283.984 39.0421C286.031 40.6111 288.414 41.3957 291.143 41.3957C295.477 41.3957 299.009 39.3497 301.733 35.2579L307.285 38.4678C305.386 41.4674 303.05 43.7749 300.274 45.3901C297.498 47.0104 294.454 47.8155 291.143 47.8155C288.66 47.8155 286.299 47.354 284.058 46.4259C281.817 45.4978 279.844 44.2005 278.143 42.534C276.438 40.8675 275.11 38.9395 274.16 36.7551C273.21 34.5656 272.738 32.2582 272.738 29.8328C272.738 27.4074 273.21 25.0846 274.16 22.8746C275.11 20.6594 276.438 18.7212 278.143 17.0598C279.796 15.3933 281.759 14.1114 284.026 13.2038C286.288 12.3013 288.666 11.8501 291.148 11.8501C293.63 11.8501 296.007 12.3013 298.269 13.2038C300.536 14.1063 302.494 15.3933 304.152 17.0598C307.758 20.6748 309.558 24.8641 309.558 29.6226C309.558 30.4789 309.484 31.3813 309.337 32.3351H279.754H279.744ZM285.517 18.9878C283.764 19.8441 282.363 20.9773 281.318 22.3772C280.269 23.7822 279.749 25.2692 279.749 26.8382H302.541C302.541 25.2692 302.016 23.7822 300.972 22.3772C299.922 20.9722 298.526 19.8441 296.774 18.9878C295.021 18.1315 293.147 17.7008 291.148 17.7008C289.148 17.7008 287.275 18.1263 285.522 18.9878H285.517Z" fill="#F2F2F2"></path><path d="M315.582 47.4616V0H321.429V47.4616H315.582Z" fill="#F2F2F2"></path><path d="M329.154 47.4616V0H335V47.4616H329.154Z" fill="#F2F2F2"></path><path d="M177.66 11.9937C177.66 11.9937 177.672 12.0156 177.677 12.0265C177.666 12.0046 177.66 11.9937 177.66 11.9937Z" fill="#F2F2F2"></path><path d="M206.587 28.597C205.957 19.2186 197.949 11.7783 188.193 11.7783C178.437 11.7783 169.751 19.8595 169.751 29.7969C169.751 39.7343 178.022 47.8155 188.193 47.8155C195.152 47.8155 201.224 44.0262 204.362 38.4524L199.019 35.2989C196.983 39.1139 192.895 41.7238 188.193 41.7238C182.829 41.7238 178.269 38.3242 176.631 33.617C176.841 33.617 177.046 33.617 177.256 33.617C180.699 33.5657 183.842 32.4171 186.666 30.12C187.715 29.2636 188.712 28.3458 189.746 27.4382C188.555 26.6383 186.996 26.828 185.847 27.9048C183.412 30.1917 180.525 31.407 177.188 31.4326C177.188 31.4326 177.183 31.4326 177.172 31.4326C177.12 31.4326 176.684 31.4172 176.096 31.3916C176.023 30.8686 175.986 30.3353 175.986 29.7969C175.986 29.7867 175.986 29.7713 175.986 29.761C176.6 29.7918 177.959 29.8379 178.752 29.6738C178.757 29.6738 178.762 29.6738 178.767 29.6738C180.861 29.3559 182.803 28.4073 184.577 26.7972C186.582 24.9718 188.985 24.7923 191.174 26.3819C191.263 26.4434 191.41 26.5306 191.483 26.4998C192.155 26.2178 192.811 25.9101 193.509 25.5922C193.315 25.3871 193.157 25.2077 192.984 25.0487C190.182 22.4387 185.936 22.4849 183.113 25.1512C181.292 26.8741 179.093 27.6689 176.626 27.592C176.626 27.592 176.464 27.592 176.201 27.5869C177.266 22.0644 182.236 17.8751 188.193 17.8751C193.724 17.8751 198.411 21.4952 199.901 26.4332C192.145 25.7717 186.429 32.5146 186.429 32.5146C187.684 33.176 189.164 33.2119 190.796 31.6429C191.803 30.6737 193.535 29.7764 194.721 29.2329C195.561 28.8483 196.464 28.6124 197.387 28.556C198.426 28.4945 199.418 28.556 200.342 28.6842C203.512 29.1303 205.884 30.4327 206.597 30.8635C206.618 30.5097 206.634 30.1558 206.634 29.7969C206.634 29.3969 206.613 28.997 206.587 28.6022V28.597Z" fill="#F2F2F2"></path><path d="M196.841 30.2891C192.307 31.3813 193.073 32.2428 190.282 33.8323C189.2 34.4477 186.96 35.4937 184.225 33.4478L182.205 34.3451C182.205 34.3451 186.708 39.4779 192.911 34.5399C195.33 32.6171 197.786 32.1761 200.08 32.4632C202.231 32.7299 204.246 33.6426 205.962 34.5656C206.178 33.7862 206.34 33.0017 206.451 32.2069C204.724 31.4685 202.488 30.6481 200.373 30.2994C199.103 30.0891 197.881 30.0481 196.841 30.2994V30.2891Z" fill="#F2F2F2"></path></g><defs><clipPath id="clip0_150_289"><rect width="335" height="48" fill="white"></rect></clipPath></defs></svg>