<svg xmlns="http://www.w3.org/2000/svg" width="151" height="22" viewBox="0 0 151 22" fill="none"><g id="logo 1" clip-path="url(#clip0_126_259)"><g id="Capa 1"><g id="Group"><path id="Vector" d="M18.2073 21.8355V4.792L11.688 14.1481H9.44785L2.96398 4.792V21.8355H0V0.0822449H3.25967L10.5691 10.5828L17.8785 0.0822449H21.1713V21.8355H18.2073Z" fill="#150585"></path><path id="Vector_2" d="M36.805 21.8355V19.349C36.1024 20.1551 35.291 20.7991 34.3685 21.2785C33.4459 21.7579 32.469 21.9977 31.4376 21.9977C30.2951 21.9977 29.2259 21.7908 28.2276 21.3772C27.2294 20.9636 26.3447 20.3737 25.5759 19.6099C24.8071 18.8696 24.2086 17.9906 23.7805 16.9753C23.3523 15.9624 23.1394 14.8978 23.1394 13.7861C23.1394 12.6745 23.3523 11.6099 23.7805 10.5969C24.2086 9.58402 24.8071 8.6933 25.5759 7.93185C26.3447 7.17039 27.227 6.58049 28.2276 6.16451C29.2259 5.75088 30.2974 5.54407 31.4376 5.54407C32.4903 5.54407 33.4838 5.76263 34.4182 6.19742C35.3502 6.63455 36.1473 7.24324 36.805 8.0282V5.86839H39.7689V21.8355H36.805ZM29.3465 8.86487C28.6771 9.13749 28.0999 9.51352 27.6173 9.99295C27.1348 10.4724 26.7563 11.0458 26.4819 11.7109C26.2075 12.376 26.0703 13.0693 26.0703 13.7885C26.0703 14.5076 26.2075 15.1962 26.4819 15.8496C26.7563 16.5029 27.1348 17.0717 27.6173 17.5511C28.0999 18.0306 28.6771 18.4066 29.3465 18.6792C30.0159 18.9518 30.7138 19.0881 31.4376 19.0881C32.1615 19.0881 32.8546 18.9518 33.5122 18.6792C34.1698 18.4066 34.7422 18.0306 35.2248 17.5511C35.7074 17.0717 36.0858 16.5053 36.3602 15.8496C36.6346 15.1962 36.7718 14.5076 36.7718 13.7885C36.7718 13.0693 36.6346 12.376 36.3602 11.7109C36.0858 11.0458 35.7074 10.4724 35.2248 9.99295C34.7422 9.51352 34.1721 9.13749 33.5122 8.86487C32.8546 8.59225 32.1615 8.45594 31.4376 8.45594C30.7138 8.45594 30.0159 8.59225 29.3465 8.86487Z" fill="#150585"></path><path id="Vector_3" d="M50.1441 8.62044C49.6166 8.38073 49.1459 8.26087 48.7272 8.26087C47.8496 8.26087 47.1233 8.56639 46.5533 9.17744C45.9382 9.83078 45.6307 10.5852 45.6307 11.4336V21.8355H42.7992V11.4336C42.7992 10.2562 43.0996 9.17744 43.7052 8.19506C44.3084 7.21269 45.1363 6.45123 46.1913 5.90599C46.9814 5.53466 47.8259 5.349 48.7272 5.349C49.451 5.349 50.1441 5.48061 50.8017 5.74148C51.4593 6.00235 52.1524 6.42773 52.8763 7.01762L50.1441 8.62044Z" fill="#150585"></path><path id="Vector_4" d="M55.2962 2.68157C55.0005 2.38779 54.8514 2.03292 54.8514 1.61929C54.8514 1.20566 55.0005 0.850779 55.2962 0.557006C55.5918 0.263234 55.949 0.115173 56.3654 0.115173C56.7817 0.115173 57.1389 0.263234 57.4346 0.557006C57.7303 0.850779 57.8793 1.20566 57.8793 1.61929C57.8793 2.03292 57.7303 2.38779 57.4346 2.68157C57.1389 2.97534 56.7817 3.1234 56.3654 3.1234C55.949 3.1234 55.5918 2.97534 55.2962 2.68157ZM55.017 21.8355V5.48063H57.7823V21.8355H55.017Z" fill="#150585"></path><path id="Vector_5" d="M71.6347 21.8355V12.0212C71.6347 11.0388 71.2728 10.1904 70.549 9.46887C69.8464 8.77087 68.9901 8.42304 67.98 8.42304C66.97 8.42304 66.1373 8.78262 65.4111 9.50177C65.0823 9.82845 64.8173 10.2162 64.621 10.6628C64.4223 11.1093 64.3253 11.5629 64.3253 12.0212V21.8355H61.4607V5.8731H64.3253V7.21505C64.7417 6.71446 65.2905 6.29848 65.9717 5.97181C66.653 5.64513 67.3224 5.48062 67.98 5.48062C68.8576 5.48062 69.6974 5.64983 70.4993 5.98826C71.3012 6.32668 72.0085 6.80142 72.6235 7.41247C73.2173 8.00236 73.6833 8.69331 74.0239 9.49002C74.3645 10.2867 74.5349 11.1304 74.5349 12.0259V21.8402H71.6371L71.6347 21.8355Z" fill="#150585"></path><path id="Vector_6" d="M101.873 13.772L106.779 21.7532H103.354L100.194 16.5523L97.0001 21.7532H93.6411L98.4809 13.772L93.4092 5.39835H96.7683L100.194 10.9918L103.586 5.39835H106.978L101.873 13.772Z" fill="#150585"></path><path id="Vector_7" d="M112.243 21.2808C111.245 20.8555 110.361 20.2609 109.592 19.497C108.844 18.7567 108.258 17.8778 107.829 16.8625C107.401 15.8472 107.188 14.7849 107.188 13.6733C107.188 12.5617 107.401 11.497 107.829 10.4841C108.258 9.46885 108.844 8.59223 109.592 7.84958C110.361 7.08577 111.243 6.49117 112.243 6.06579C113.242 5.64041 114.301 5.42889 115.42 5.42889C118.011 5.42889 120.206 6.51938 122.006 8.70034L119.437 10.1715C118.294 8.97296 116.956 8.37131 115.42 8.37131C114.696 8.37131 114.01 8.50763 113.362 8.78025C112.714 9.05287 112.149 9.42889 111.666 9.90833C111.184 10.3878 110.798 10.9542 110.514 11.6099C110.228 12.2632 110.086 12.9518 110.086 13.671C110.086 14.3901 110.228 15.0787 110.514 15.7321C110.798 16.3854 111.184 16.9542 111.666 17.4336C112.149 17.913 112.714 18.2891 113.362 18.5617C114.01 18.8343 114.696 18.9706 115.42 18.9706C116.956 18.9706 118.297 18.3713 119.437 17.1704L122.006 18.6416C120.206 20.8225 118.011 21.913 115.42 21.913C114.301 21.913 113.242 21.7015 112.243 21.2761V21.2808Z" fill="#150585"></path><path id="Vector_8" d="M126.094 14.8202C126.094 15.3443 126.285 15.8895 126.671 16.4559C127.054 17.0223 127.499 17.5017 128.005 17.8942C128.927 18.6134 130.001 18.973 131.231 18.973C133.185 18.973 134.777 18.0352 136.005 16.1598L138.508 17.631C137.651 19.0059 136.599 20.0634 135.347 20.8037C134.096 21.5464 132.724 21.9154 131.231 21.9154C130.113 21.9154 129.048 21.7039 128.038 21.2785C127.028 20.8531 126.139 20.2585 125.372 19.4947C124.603 18.7309 124.005 17.8472 123.577 16.8461C123.148 15.8425 122.936 14.7849 122.936 13.6733C122.936 12.5617 123.148 11.497 123.577 10.4841C124.005 9.46885 124.603 8.58048 125.372 7.81902C126.117 7.05522 127.002 6.46767 128.024 6.05169C129.043 5.63806 130.115 5.43124 131.234 5.43124C132.353 5.43124 133.424 5.63806 134.444 6.05169C135.466 6.46532 136.348 7.05522 137.096 7.81902C138.721 9.4759 139.532 11.396 139.532 13.577C139.532 13.9694 139.499 14.3831 139.433 14.8202H126.098H126.094ZM128.696 8.70269C127.906 9.09517 127.274 9.61456 126.803 10.2562C126.33 10.9001 126.096 11.5817 126.096 12.3008H136.369C136.369 11.5817 136.133 10.9001 135.662 10.2562C135.189 9.61221 134.56 9.09517 133.77 8.70269C132.98 8.31021 132.135 8.11279 131.234 8.11279C130.333 8.11279 129.488 8.30786 128.698 8.70269H128.696Z" fill="#150585"></path><path id="Vector_9" d="M142.248 21.7532V0H144.883V21.7532H142.248Z" fill="#150585"></path><path id="Vector_10" d="M126.094 14.8202C126.094 15.3443 126.285 15.8895 126.671 16.4559C127.054 17.0223 127.499 17.5017 128.005 17.8942C128.927 18.6134 130.001 18.973 131.231 18.973C133.185 18.973 134.777 18.0352 136.005 16.1598L138.508 17.631C137.651 19.0059 136.599 20.0634 135.347 20.8037C134.096 21.5464 132.724 21.9154 131.231 21.9154C130.113 21.9154 129.048 21.7039 128.038 21.2785C127.028 20.8531 126.139 20.2585 125.372 19.4947C124.603 18.7309 124.005 17.8472 123.577 16.8461C123.148 15.8425 122.936 14.7849 122.936 13.6733C122.936 12.5617 123.148 11.497 123.577 10.4841C124.005 9.46885 124.603 8.58048 125.372 7.81902C126.117 7.05522 127.002 6.46767 128.024 6.05169C129.043 5.63806 130.115 5.43124 131.234 5.43124C132.353 5.43124 133.424 5.63806 134.444 6.05169C135.466 6.46532 136.348 7.05522 137.096 7.81902C138.721 9.4759 139.532 11.396 139.532 13.577C139.532 13.9694 139.499 14.3831 139.433 14.8202H126.098H126.094ZM128.696 8.70269C127.906 9.09517 127.274 9.61456 126.803 10.2562C126.33 10.9001 126.096 11.5817 126.096 12.3008H136.369C136.369 11.5817 136.133 10.9001 135.662 10.2562C135.189 9.61221 134.56 9.09517 133.77 8.70269C132.98 8.31021 132.135 8.11279 131.234 8.11279C130.333 8.11279 129.488 8.30786 128.698 8.70269H128.696Z" fill="#150585"></path><path id="Vector_11" d="M142.248 21.7532V0H144.883V21.7532H142.248Z" fill="#150585"></path><path id="Vector_12" d="M148.365 21.7532V0H151V21.7532H148.365Z" fill="#150585"></path><g id="Group_2"><path id="Vector_13" d="M80.0796 5.49704C80.0796 5.49704 80.0847 5.50709 80.0873 5.51212C80.0822 5.50207 80.0796 5.49704 80.0796 5.49704Z" fill="#150585"></path><path id="Vector_14" d="M93.1183 13.1069C92.8344 8.80845 89.2247 5.39835 84.8272 5.39835C80.4297 5.39835 76.5148 9.10222 76.5148 13.6569C76.5148 18.2115 80.2428 21.9154 84.8272 21.9154C87.9638 21.9154 90.7007 20.1786 92.1153 17.624L89.7072 16.1786C88.7894 17.9271 86.9467 19.1234 84.8272 19.1234C82.4096 19.1234 80.354 17.5652 79.616 15.4077C79.7106 15.4077 79.8028 15.4077 79.8975 15.4077C81.4492 15.3842 82.8662 14.8578 84.1388 13.8049C84.6119 13.4124 85.0614 12.9918 85.5274 12.5758C84.9904 12.2092 84.2878 12.2961 83.7698 12.7896C82.6722 13.8378 81.3712 14.3948 79.8667 14.4066C79.8667 14.4066 79.8643 14.4066 79.8596 14.4066C79.836 14.4066 79.6396 14.3995 79.3747 14.3878C79.3416 14.1481 79.325 13.9036 79.325 13.6569C79.325 13.6522 79.325 13.6451 79.325 13.6404C79.6018 13.6545 80.2144 13.6757 80.5716 13.6005C80.574 13.6005 80.5764 13.6005 80.5787 13.6005C81.5226 13.4548 82.3978 13.02 83.1973 12.282C84.101 11.4453 85.1844 11.3631 86.1708 12.0916C86.211 12.1199 86.2772 12.1598 86.3104 12.1457C86.6131 12.0164 86.9088 11.8754 87.2234 11.7297C87.1359 11.6357 87.065 11.5535 86.9869 11.4806C85.7237 10.2844 83.81 10.3055 82.5374 11.5276C81.7165 12.3173 80.7254 12.6815 79.6136 12.6463C79.6136 12.6463 79.5403 12.6463 79.422 12.6439C79.9022 10.1128 82.1423 8.19271 84.8272 8.19271C87.3204 8.19271 89.4328 9.85193 90.1046 12.1151C86.6084 11.812 84.0324 14.9025 84.0324 14.9025C84.5977 15.2056 85.2648 15.2221 86.0005 14.5029C86.4546 14.0587 87.2353 13.6475 87.7699 13.3983C88.1484 13.2221 88.5552 13.114 88.9715 13.0881C89.4399 13.0599 89.887 13.0881 90.3033 13.1469C91.7321 13.3513 92.8013 13.9483 93.123 14.1457C93.1325 13.9835 93.1396 13.8214 93.1396 13.6569C93.1396 13.4736 93.1301 13.2902 93.1183 13.1093V13.1069Z" fill="#150585"></path><path id="Vector_15" d="M88.7255 13.8825C86.6817 14.3831 87.0271 14.7779 85.7686 15.5065C85.2813 15.7885 84.2713 16.2679 83.0388 15.3302L82.1281 15.7415C82.1281 15.7415 84.1577 18.094 86.9538 15.8308C88.0443 14.9495 89.1513 14.7473 90.185 14.879C91.1549 15.0012 92.0633 15.4195 92.8368 15.8425C92.9338 15.4853 93.0071 15.1257 93.0568 14.7614C92.2785 14.423 91.2708 14.047 90.3175 13.8872C89.7451 13.7908 89.1939 13.772 88.7255 13.8872V13.8825Z" fill="#150585"></path></g></g></g></g><defs><clipPath id="clip0_126_259"><rect width="151" height="22" fill="white"></rect></clipPath></defs></svg>