<svg xmlns="http://www.w3.org/2000/svg" width="48" height="48" viewBox="0 0 48 48" fill="none"><g id="shrimp-illustration-2-svgrepo-com 1" clip-path="url(#clip0_126_209)"><g id="Group"><path id="Vector" d="M42.2188 15.9195C38.7079 12.5246 33.9654 10.2653 28.9014 9.57461C27.353 9.36086 25.7734 9.25764 24.1855 9.25483C21.0095 9.25764 17.807 9.67783 14.7779 10.522L14.7678 10.5248C14.7678 10.5248 11.5981 11.4456 8.33709 12.404C7.62722 12.6132 6.91688 12.8224 6.22997 13.0252C6.22584 13.0252 6.22172 13.0215 6.21713 13.0188V13.0169C5.52188 12.8324 4.88831 12.3089 4.67494 11.758C4.52784 11.4017 4.44516 10.9924 4.44516 10.5594C4.44703 9.78911 4.70194 8.95511 5.29622 8.21139C5.89228 7.4687 6.83419 6.79351 8.28544 6.38795C10.2214 5.84523 14.3206 5.32998 18.1504 4.70233C20.0739 4.3862 21.9431 4.0382 23.5086 3.62158C25.0817 3.18123 26.3239 2.77098 27.1935 1.9488C27.6098 1.53667 27.6139 0.866171 27.2018 0.450483C26.7878 0.0366707 26.1169 0.0320769 25.7031 0.445889C25.4833 0.705389 24.3988 1.20967 22.9618 1.57239C20.7962 2.15251 17.7905 2.62848 14.9456 3.0588C12.0907 3.49361 9.41606 3.87836 7.71825 4.34692C5.90063 4.84942 4.53441 5.76489 3.63994 6.88848C2.74312 8.0087 2.32519 9.31689 2.32519 10.5595C2.32519 11.2592 2.45766 11.9408 2.71434 12.5639C2.91947 13.0526 3.22959 13.4583 3.58191 13.8164C3.01687 13.9864 2.51569 14.1389 2.13666 14.2577C1.92562 14.3235 1.74975 14.3792 1.60903 14.4267L1.25681 14.5537C0.925687 14.6962 0.636093 14.9072 0.403968 15.1931C0.176062 15.4782 0.000186993 15.8601 0.000186993 16.3087C-0.00581301 16.7536 0.203062 17.2158 0.515812 17.5237C0.830625 17.8389 1.21978 18.037 1.66697 18.176C1.76016 18.2034 2.09541 18.3277 2.54034 18.4994C4.11994 19.1096 7.3125 20.3869 10.5648 21.5179C12.1924 22.0807 13.8341 22.6088 15.3182 22.9997C16.8068 23.3917 18.111 23.6538 19.1835 23.6584L19.6577 23.6374H19.6618C22.8767 23.3249 23.5002 23.1175 26.4772 22.816C26.7444 22.7887 27.007 22.7759 27.2661 22.7759C29.6879 22.7759 31.8805 23.9088 33.5013 25.7249C35.1202 27.5357 36.1205 30.0143 36.1178 32.5714C36.1078 35.1815 34.8452 37.1566 32.8125 38.6057C30.8456 39.9952 28.15 40.7755 25.4522 40.8193L14.8939 34.4488C14.521 34.225 14.0469 34.2523 13.7034 34.5146C13.3577 34.7805 13.2087 35.2318 13.3288 35.6493L16.0883 45.2575C16.1879 45.601 16.4505 45.8723 16.7922 45.9783C16.8439 45.9884 22.7876 47.8539 28.4706 47.8621C28.7378 47.8621 29.005 47.8575 29.2676 47.8502C39.5712 47.514 48 39.4626 48 29.0843C48.0018 23.8795 45.7288 19.3107 42.2188 15.9195ZM20.9619 44.8481C19.9063 44.6225 19.0137 44.3968 18.3907 44.2287C18.2065 44.1794 18.0987 44.1484 17.964 44.1091L16.1113 37.66L24.2353 42.5578L24.7776 45.4896C23.4007 45.3178 22.0861 45.0857 20.9619 44.8481ZM27.2662 20.6563C26.9349 20.6563 26.5992 20.6728 26.2621 20.7085C23.1816 21.0209 22.5768 21.2255 19.4591 21.526H19.4633L19.1836 21.538C18.3719 21.5444 16.902 21.2548 15.246 20.7843C12.7492 20.0827 9.76359 19.0045 7.29187 18.0663C6.05578 17.5967 4.94625 17.1618 4.08066 16.8247C3.46997 16.5863 3.04791 16.4245 2.70619 16.3003C2.77837 16.2775 2.83041 16.261 2.90887 16.2363C4.42641 15.7668 7.54631 14.845 10.277 14.0438C13.01 13.2425 15.3533 12.562 15.3597 12.562C18.1854 11.7745 21.2021 11.3752 24.1854 11.377C25.6777 11.3752 27.1646 11.4748 28.616 11.673C29.6697 11.8165 30.7066 12.044 31.7234 12.3336L29.3632 20.8901C28.6839 20.7431 27.9864 20.6563 27.2662 20.6563ZM35.0856 24.3126C34.0522 23.1533 32.7915 22.2096 31.3773 21.5654L33.7372 13.0043C36.3829 14.0357 38.7929 15.5513 40.7453 17.4433C41.9631 18.6236 42.9982 19.9466 43.8195 21.3854L36.2752 25.9232C35.9169 25.3559 35.5286 24.8095 35.0856 24.3126ZM29.1997 45.7298C28.9594 45.738 28.7151 45.7426 28.4707 45.7426C27.9742 45.7426 27.4707 45.7134 26.9678 45.6841L26.4461 42.871C29.1973 42.6655 31.887 41.846 34.0312 40.3387C35.5387 39.289 36.7719 37.873 37.5055 36.1672L42.5439 38.9536C39.5072 42.9407 34.6799 45.5416 29.1997 45.7298ZM38.1058 34.0779C38.1862 33.5891 38.2401 33.0903 38.2383 32.5714C38.2356 30.904 37.8719 29.2952 37.2506 27.8116L44.7366 23.3085C45.4611 25.0991 45.8795 27.0287 45.8795 29.0842C45.8795 32.0515 45.0928 34.8023 43.7261 37.1832L38.1058 34.0779Z" fill="#F2F2F2"></path><path id="Vector_2" d="M13.8739 24.4771C13.4888 24.0367 12.8205 23.9911 12.3792 24.3784L7.33622 28.7901C6.89494 29.1747 6.84966 29.8435 7.23657 30.2847C7.6216 30.726 8.29041 30.7689 8.73122 30.3843L13.7747 25.9726C14.2155 25.587 14.2612 24.9183 13.8739 24.4771Z" fill="#F2F2F2"></path><path id="Vector_3" d="M14.7665 31.1069L19.8136 26.6925C20.2549 26.308 20.3001 25.6392 19.9132 25.1979C19.528 24.7567 18.8594 24.7119 18.4181 25.0964L13.371 29.5109C12.9297 29.8974 12.8845 30.5661 13.2714 31.0074C13.6564 31.4477 14.3252 31.4934 14.7665 31.1069Z" fill="#F2F2F2"></path><path id="Vector_4" d="M21.6868 30.6256L26.8253 26.3253C27.2749 25.948 27.3346 25.2801 26.9601 24.8307C26.5832 24.3812 25.9146 24.3236 25.4655 24.6982L20.3247 28.9976C19.8774 29.3748 19.8177 30.0418 20.1923 30.4931C20.569 30.9398 21.2378 31.0001 21.6868 30.6256Z" fill="#F2F2F2"></path><path id="Vector_5" d="M12.4239 14.2137C11.5318 14.2137 10.8069 14.9365 10.8069 15.8307C10.8069 16.7225 11.5318 17.4496 12.4239 17.4496C13.3184 17.4496 14.0428 16.7225 14.0428 15.8307C14.0428 14.9365 13.3184 14.2137 12.4239 14.2137Z" fill="#F2F2F2"></path></g></g><defs><clipPath id="clip0_126_209"><rect width="48" height="48" fill="white"></rect></clipPath></defs></svg>